STARTFONT 2.1
FONT -Monotype-Arial Narrow-Regular-I-Normal--17-120-100-100-P-69-iso8859-9
SIZE 12 100 100
FONTBOUNDINGBOX 19 20 -4 -5

STARTPROPERTIES 24
FOUNDRY "Monotype"
FAMILY_NAME "Arial Narrow"
WEIGHT_NAME "Regular"
SLANT "I"
SETWIDTH_NAME "Normal"
ADD_STYLE_NAME ""
PIXEL_SIZE 17
POINT_SIZE 120
RESOLUTION_X 100
RESOLUTION_Y 100
SPACING "P"
AVERAGE_WIDTH 69
CHARSET_REGISTRY "iso8859"
CHARSET_ENCODING "9"
FACE_NAME "Arial Narrow it ISO Latin5"
_DEC_DEVICE_FONTNAMES "PS=arialnarrow-italic-lat5"
COPYRIGHT "Copyright (c) 1994 Monotype Typography Ltd."
CAP_HEIGHT 15
X_HEIGHT 10
WEIGHT 10
QUAD_WIDTH 8
DEFAULT_CHAR 160
FONT_DESCENT 5
FONT_ASCENT 16
ENDPROPERTIES

CHARS 191

STARTCHAR space
ENCODING 32
SWIDTH 228 0
DWIDTH 4 0
BBX 0 0 0 0
BITMAP
ENDCHAR

STARTCHAR exclam
ENCODING 33
SWIDTH 228 0
DWIDTH 4 0
BBX 4 12 1 0
BITMAP
10
10
10
20
20
20
40
40
40
00
80
80
ENDCHAR

STARTCHAR quotedbl
ENCODING 34
SWIDTH 291 0
DWIDTH 5 0
BBX 5 5 0 7
BITMAP
D8
D8
D8
90
90
ENDCHAR

STARTCHAR numbersign
ENCODING 35
SWIDTH 456 0
DWIDTH 8 0
BBX 7 13 1 0
BITMAP
24
24
24
24
FE
24
48
48
FE
48
48
90
90
ENDCHAR

STARTCHAR dollar
ENCODING 36
SWIDTH 456 0
DWIDTH 8 0
BBX 7 15 1 -2
BITMAP
08
3C
4A
52
50
50
30
18
14
A4
A4
A4
78
20
20
ENDCHAR

STARTCHAR percent
ENCODING 37
SWIDTH 729 0
DWIDTH 12 0
BBX 10 12 1 0
BITMAP
3040
5080
9080
9100
A200
C400
04C0
0940
0A40
1240
2280
4100
ENDCHAR

STARTCHAR ampersand
ENCODING 38
SWIDTH 547 0
DWIDTH 9 0
BBX 7 12 1 0
BITMAP
18
24
24
28
30
20
50
8A
86
84
8E
72
ENDCHAR

STARTCHAR quoteright
ENCODING 39
SWIDTH 182 0
DWIDTH 3 0
BBX 2 5 1 7
BITMAP
40
40
40
80
80
ENDCHAR

STARTCHAR parenleft
ENCODING 40
SWIDTH 273 0
DWIDTH 5 0
BBX 4 16 2 -4
BITMAP
10
10
20
20
40
40
80
80
80
80
80
80
80
80
40
40
ENDCHAR

STARTCHAR parenright
ENCODING 41
SWIDTH 273 0
DWIDTH 5 0
BBX 4 16 0 -4
BITMAP
20
20
10
10
10
10
10
10
10
10
20
20
40
40
80
80
ENDCHAR

STARTCHAR asterisk
ENCODING 42
SWIDTH 319 0
DWIDTH 5 0
BBX 5 5 0 7
BITMAP
20
28
F0
30
48
ENDCHAR

STARTCHAR plus
ENCODING 43
SWIDTH 479 0
DWIDTH 8 0
BBX 7 7 1 3
BITMAP
10
10
10
FE
10
10
10
ENDCHAR

STARTCHAR comma
ENCODING 44
SWIDTH 228 0
DWIDTH 4 0
BBX 2 5 0 -3
BITMAP
40
40
40
80
80
ENDCHAR

STARTCHAR minus
ENCODING 45
SWIDTH 479 0
DWIDTH 8 0
BBX 7 1 1 6
BITMAP
FE
ENDCHAR

STARTCHAR period
ENCODING 46
SWIDTH 228 0
DWIDTH 4 0
BBX 1 2 1 0
BITMAP
80
80
ENDCHAR

STARTCHAR slash
ENCODING 47
SWIDTH 228 0
DWIDTH 4 0
BBX 7 13 -1 -1
BITMAP
02
04
04
08
08
10
10
20
20
40
40
80
80
ENDCHAR

STARTCHAR zero
ENCODING 48
SWIDTH 456 0
DWIDTH 8 0
BBX 7 12 1 0
BITMAP
1C
22
42
42
42
42
82
84
84
84
88
70
ENDCHAR

STARTCHAR one
ENCODING 49
SWIDTH 456 0
DWIDTH 8 0
BBX 4 12 3 0
BITMAP
10
30
50
90
20
20
20
20
40
40
40
40
ENDCHAR

STARTCHAR two
ENCODING 50
SWIDTH 456 0
DWIDTH 8 0
BBX 7 12 1 0
BITMAP
1C
22
42
42
02
04
08
10
20
40
80
FC
ENDCHAR

STARTCHAR three
ENCODING 51
SWIDTH 456 0
DWIDTH 8 0
BBX 7 12 1 0
BITMAP
1C
22
42
02
04
38
04
04
84
84
88
70
ENDCHAR

STARTCHAR four
ENCODING 52
SWIDTH 456 0
DWIDTH 8 0
BBX 7 12 1 0
BITMAP
02
06
0A
12
14
24
44
84
FE
08
08
08
ENDCHAR

STARTCHAR five
ENCODING 53
SWIDTH 456 0
DWIDTH 8 0
BBX 7 12 1 0
BITMAP
3E
20
20
40
78
44
04
04
84
84
88
70
ENDCHAR

STARTCHAR six
ENCODING 54
SWIDTH 456 0
DWIDTH 8 0
BBX 7 12 1 0
BITMAP
1C
22
42
40
B0
C8
84
84
84
84
88
70
ENDCHAR

STARTCHAR seven
ENCODING 55
SWIDTH 456 0
DWIDTH 8 0
BBX 6 12 2 0
BITMAP
FC
04
08
10
10
20
20
20
40
40
80
80
ENDCHAR

STARTCHAR eight
ENCODING 56
SWIDTH 456 0
DWIDTH 8 0
BBX 7 12 1 0
BITMAP
1C
22
42
42
24
38
48
84
84
84
88
70
ENDCHAR

STARTCHAR nine
ENCODING 57
SWIDTH 456 0
DWIDTH 8 0
BBX 7 12 1 0
BITMAP
1C
22
42
42
42
42
26
1A
04
84
88
70
ENDCHAR

STARTCHAR colon
ENCODING 58
SWIDTH 228 0
DWIDTH 4 0
BBX 2 9 1 0
BITMAP
40
40
00
00
00
00
00
80
80
ENDCHAR

STARTCHAR semicolon
ENCODING 59
SWIDTH 228 0
DWIDTH 4 0
BBX 3 12 0 -3
BITMAP
20
20
00
00
00
00
00
40
40
40
80
80
ENDCHAR

STARTCHAR less
ENCODING 60
SWIDTH 479 0
DWIDTH 8 0
BBX 7 8 1 2
BITMAP
02
0C
30
C0
C0
30
0C
02
ENDCHAR

STARTCHAR equal
ENCODING 61
SWIDTH 479 0
DWIDTH 8 0
BBX 7 5 1 4
BITMAP
FE
00
00
00
FE
ENDCHAR

STARTCHAR greater
ENCODING 62
SWIDTH 479 0
DWIDTH 8 0
BBX 7 8 1 2
BITMAP
80
60
18
06
06
18
60
80
ENDCHAR

STARTCHAR question
ENCODING 63
SWIDTH 456 0
DWIDTH 8 0
BBX 6 12 2 0
BITMAP
30
48
84
04
08
10
20
40
40
00
80
80
ENDCHAR

STARTCHAR at
ENCODING 64
SWIDTH 832 0
DWIDTH 14 0
BBX 13 16 1 -4
BITMAP
0FC0
3030
2010
4748
4DC8
98C8
9088
9088
9088
9190
9990
4EE0
4008
2010
3030
0FC0
ENDCHAR

STARTCHAR A
ENCODING 65
SWIDTH 547 0
DWIDTH 9 0
BBX 8 12 1 0
BITMAP
02
06
06
0A
09
11
21
3F
41
41
81
81
ENDCHAR

STARTCHAR B
ENCODING 66
SWIDTH 547 0
DWIDTH 9 0
BBX 8 12 1 0
BITMAP
1E
11
11
21
22
3C
42
42
42
82
84
F8
ENDCHAR

STARTCHAR C
ENCODING 67
SWIDTH 592 0
DWIDTH 10 0
BBX 9 12 2 0
BITMAP
0E00
1100
2080
4000
4000
8000
8000
8000
8000
8100
4200
3C00
ENDCHAR

STARTCHAR D
ENCODING 68
SWIDTH 592 0
DWIDTH 10 0
BBX 9 12 1 0
BITMAP
1E00
1100
1080
2080
2080
2080
4080
4100
4100
8200
8400
F800
ENDCHAR

STARTCHAR E
ENCODING 69
SWIDTH 547 0
DWIDTH 9 0
BBX 9 12 1 0
BITMAP
1F80
1000
1000
2000
2000
3F00
4000
4000
4000
8000
8000
FE00
ENDCHAR

STARTCHAR F
ENCODING 70
SWIDTH 501 0
DWIDTH 9 0
BBX 9 12 1 0
BITMAP
1F80
1000
1000
2000
2000
3F00
4000
4000
4000
8000
8000
8000
ENDCHAR

STARTCHAR G
ENCODING 71
SWIDTH 638 0
DWIDTH 11 0
BBX 10 12 2 0
BITMAP
0F00
1080
2040
4000
4000
8000
8780
8080
8080
8100
4200
3C00
ENDCHAR

STARTCHAR H
ENCODING 72
SWIDTH 592 0
DWIDTH 10 0
BBX 10 12 1 0
BITMAP
1040
1040
1040
2080
2080
3F80
4100
4100
4100
8200
8200
8200
ENDCHAR

STARTCHAR I
ENCODING 73
SWIDTH 228 0
DWIDTH 4 0
BBX 4 12 1 0
BITMAP
10
10
10
20
20
20
40
40
40
80
80
80
ENDCHAR

STARTCHAR J
ENCODING 74
SWIDTH 410 0
DWIDTH 7 0
BBX 8 12 0 0
BITMAP
01
01
01
02
02
02
04
04
04
88
88
70
ENDCHAR

STARTCHAR K
ENCODING 75
SWIDTH 547 0
DWIDTH 9 0
BBX 9 12 1 0
BITMAP
1080
1100
1200
2400
2800
3000
5000
4800
4400
8400
8200
8200
ENDCHAR

STARTCHAR L
ENCODING 76
SWIDTH 456 0
DWIDTH 8 0
BBX 7 12 1 0
BITMAP
10
10
10
20
20
20
40
40
40
80
80
FE
ENDCHAR

STARTCHAR M
ENCODING 77
SWIDTH 683 0
DWIDTH 12 0
BBX 12 12 1 0
BITMAP
1030
1050
1850
28A0
28A0
2920
4940
4A40
4A40
8C80
8C80
8880
ENDCHAR

STARTCHAR N
ENCODING 78
SWIDTH 592 0
DWIDTH 10 0
BBX 10 12 1 0
BITMAP
1040
1040
1840
2880
2880
2C80
4500
4500
4500
8600
8200
8200
ENDCHAR

STARTCHAR O
ENCODING 79
SWIDTH 638 0
DWIDTH 11 0
BBX 9 12 2 0
BITMAP
0E00
1100
2080
4080
4080
8080
8080
8100
8100
8200
4400
3800
ENDCHAR

STARTCHAR P
ENCODING 80
SWIDTH 547 0
DWIDTH 9 0
BBX 9 12 1 0
BITMAP
1F00
1080
1080
2080
2080
2100
7E00
4000
4000
8000
8000
8000
ENDCHAR

STARTCHAR Q
ENCODING 81
SWIDTH 638 0
DWIDTH 11 0
BBX 9 13 2 -1
BITMAP
0E00
1100
2080
4080
4080
8080
8080
8100
8500
8600
4600
3B00
0100
ENDCHAR

STARTCHAR R
ENCODING 82
SWIDTH 592 0
DWIDTH 10 0
BBX 9 12 1 0
BITMAP
1F00
1080
1080
2080
2100
7E00
4400
4400
4200
8200
8100
8100
ENDCHAR

STARTCHAR S
ENCODING 83
SWIDTH 547 0
DWIDTH 9 0
BBX 8 12 2 0
BITMAP
1C
22
41
41
20
18
04
02
82
82
44
38
ENDCHAR

STARTCHAR T
ENCODING 84
SWIDTH 501 0
DWIDTH 8 0
BBX 8 12 2 0
BITMAP
FF
08
08
10
10
10
20
20
20
40
40
40
ENDCHAR

STARTCHAR U
ENCODING 85
SWIDTH 592 0
DWIDTH 10 0
BBX 10 12 1 0
BITMAP
1040
1040
2080
2080
2080
4100
4100
4100
8200
8200
8400
7800
ENDCHAR

STARTCHAR V
ENCODING 86
SWIDTH 547 0
DWIDTH 9 0
BBX 8 12 3 0
BITMAP
81
81
82
82
84
84
48
48
50
60
60
40
ENDCHAR

STARTCHAR W
ENCODING 87
SWIDTH 774 0
DWIDTH 13 0
BBX 13 12 2 0
BITMAP
8208
8610
8610
8E20
8A20
9240
9240
A280
A280
C300
C300
8200
ENDCHAR

STARTCHAR X
ENCODING 88
SWIDTH 547 0
DWIDTH 9 0
BBX 9 12 1 0
BITMAP
4080
4080
2100
2200
1400
0800
0800
1400
2200
4200
8100
8100
ENDCHAR

STARTCHAR Y
ENCODING 89
SWIDTH 547 0
DWIDTH 9 0
BBX 9 12 2 0
BITMAP
8080
8100
4200
4200
2400
3800
1000
1000
2000
2000
2000
2000
ENDCHAR

STARTCHAR Z
ENCODING 90
SWIDTH 501 0
DWIDTH 9 0
BBX 9 12 1 0
BITMAP
3F80
0080
0100
0200
0400
0400
0800
1000
1000
2000
4000
FF00
ENDCHAR

STARTCHAR bracketleft
ENCODING 91
SWIDTH 228 0
DWIDTH 4 0
BBX 6 15 0 -3
BITMAP
1C
10
10
10
20
20
20
20
40
40
40
40
80
80
E0
ENDCHAR

STARTCHAR backslash
ENCODING 92
SWIDTH 228 0
DWIDTH 4 0
BBX 7 13 -1 -1
BITMAP
80
80
40
40
20
20
10
10
08
08
04
04
02
ENDCHAR

STARTCHAR bracketright
ENCODING 93
SWIDTH 228 0
DWIDTH 4 0
BBX 6 15 -1 -3
BITMAP
1C
04
04
04
08
08
08
08
10
10
10
10
20
20
E0
ENDCHAR

STARTCHAR asciicircum
ENCODING 94
SWIDTH 385 0
DWIDTH 7 0
BBX 6 7 1 5
BITMAP
20
20
30
50
48
88
84
ENDCHAR

STARTCHAR underscore
ENCODING 95
SWIDTH 456 0
DWIDTH 8 0
BBX 8 1 0 -2
BITMAP
FF
ENDCHAR

STARTCHAR quoteleft
ENCODING 96
SWIDTH 182 0
DWIDTH 3 0
BBX 2 5 1 7
BITMAP
40
40
80
80
C0
ENDCHAR

STARTCHAR a
ENCODING 97
SWIDTH 456 0
DWIDTH 8 0
BBX 7 9 1 0
BITMAP
1C
22
42
04
3C
44
88
88
74
ENDCHAR

STARTCHAR b
ENCODING 98
SWIDTH 456 0
DWIDTH 8 0
BBX 7 12 1 0
BITMAP
10
10
10
20
2C
32
42
42
44
84
C8
B0
ENDCHAR

STARTCHAR c
ENCODING 99
SWIDTH 410 0
DWIDTH 7 0
BBX 7 9 1 0
BITMAP
1C
22
42
40
80
80
84
88
70
ENDCHAR

STARTCHAR d
ENCODING 100
SWIDTH 456 0
DWIDTH 8 0
BBX 8 12 1 0
BITMAP
01
01
01
1A
26
42
44
84
84
88
98
68
ENDCHAR

STARTCHAR e
ENCODING 101
SWIDTH 456 0
DWIDTH 8 0
BBX 7 9 1 0
BITMAP
1C
22
42
42
7C
80
84
88
70
ENDCHAR

STARTCHAR f
ENCODING 102
SWIDTH 228 0
DWIDTH 4 0
BBX 6 12 1 0
BITMAP
0C
10
10
78
20
20
40
40
40
80
80
80
ENDCHAR

STARTCHAR g
ENCODING 103
SWIDTH 456 0
DWIDTH 8 0
BBX 8 12 0 -3
BITMAP
0D
13
21
21
42
42
42
4A
34
04
88
70
ENDCHAR

STARTCHAR h
ENCODING 104
SWIDTH 456 0
DWIDTH 8 0
BBX 7 12 1 0
BITMAP
10
10
10
2C
32
22
42
44
44
88
88
88
ENDCHAR

STARTCHAR i
ENCODING 105
SWIDTH 182 0
DWIDTH 4 0
BBX 4 12 1 0
BITMAP
10
10
00
20
20
20
40
40
40
80
80
80
ENDCHAR

STARTCHAR j
ENCODING 106
SWIDTH 182 0
DWIDTH 4 0
BBX 7 15 -2 -3
BITMAP
02
02
00
04
04
04
08
08
08
10
10
10
20
20
C0
ENDCHAR

STARTCHAR k
ENCODING 107
SWIDTH 410 0
DWIDTH 7 0
BBX 7 12 1 0
BITMAP
10
10
10
22
24
28
70
50
48
88
84
84
ENDCHAR

STARTCHAR l
ENCODING 108
SWIDTH 182 0
DWIDTH 4 0
BBX 4 12 1 0
BITMAP
10
10
10
20
20
20
40
40
40
80
80
80
ENDCHAR

STARTCHAR m
ENCODING 109
SWIDTH 683 0
DWIDTH 12 0
BBX 11 9 1 0
BITMAP
2DC0
3220
2220
4220
4440
4440
8880
8880
8880
ENDCHAR

STARTCHAR n
ENCODING 110
SWIDTH 456 0
DWIDTH 8 0
BBX 7 9 1 0
BITMAP
2C
32
22
42
44
44
88
88
88
ENDCHAR

STARTCHAR o
ENCODING 111
SWIDTH 456 0
DWIDTH 8 0
BBX 7 9 1 0
BITMAP
1C
22
42
42
82
84
84
88
70
ENDCHAR

STARTCHAR p
ENCODING 112
SWIDTH 456 0
DWIDTH 8 0
BBX 8 12 0 -3
BITMAP
16
19
11
21
21
22
42
64
58
80
80
80
ENDCHAR

STARTCHAR q
ENCODING 113
SWIDTH 456 0
DWIDTH 8 0
BBX 7 12 1 -3
BITMAP
1A
26
42
44
84
84
88
98
68
10
10
10
ENDCHAR

STARTCHAR r
ENCODING 114
SWIDTH 273 0
DWIDTH 5 0
BBX 6 9 1 0
BITMAP
2C
30
20
40
40
40
80
80
80
ENDCHAR

STARTCHAR s
ENCODING 115
SWIDTH 410 0
DWIDTH 7 0
BBX 7 9 1 0
BITMAP
1C
22
42
40
38
04
84
88
70
ENDCHAR

STARTCHAR t
ENCODING 116
SWIDTH 228 0
DWIDTH 4 0
BBX 5 12 1 0
BITMAP
10
10
10
78
20
20
40
40
40
80
80
60
ENDCHAR

STARTCHAR u
ENCODING 117
SWIDTH 456 0
DWIDTH 8 0
BBX 7 9 1 0
BITMAP
22
22
22
44
44
84
88
98
68
ENDCHAR

STARTCHAR v
ENCODING 118
SWIDTH 410 0
DWIDTH 6 0
BBX 5 9 2 0
BITMAP
88
88
90
90
A0
A0
C0
C0
80
ENDCHAR

STARTCHAR w
ENCODING 119
SWIDTH 592 0
DWIDTH 9 0
BBX 9 9 1 0
BITMAP
8880
9880
9900
A900
AA00
AA00
CC00
CC00
8800
ENDCHAR

STARTCHAR x
ENCODING 120
SWIDTH 410 0
DWIDTH 7 0
BBX 7 9 0 0
BITMAP
42
44
24
18
10
18
28
44
84
ENDCHAR

STARTCHAR y
ENCODING 121
SWIDTH 410 0
DWIDTH 6 0
BBX 8 12 -1 -3
BITMAP
21
21
22
22
14
14
18
18
10
20
20
C0
ENDCHAR

STARTCHAR z
ENCODING 122
SWIDTH 410 0
DWIDTH 7 0
BBX 7 9 0 0
BITMAP
7E
02
04
08
10
10
20
40
FC
ENDCHAR

STARTCHAR braceleft
ENCODING 123
SWIDTH 274 0
DWIDTH 5 0
BBX 5 16 1 -4
BITMAP
08
10
20
20
20
20
40
80
40
40
40
80
80
80
80
40
ENDCHAR

STARTCHAR bar
ENCODING 124
SWIDTH 213 0
DWIDTH 4 0
BBX 1 17 2 -5
BITMAP
80
80
80
80
80
80
80
80
80
80
80
80
80
80
80
80
80
ENDCHAR

STARTCHAR braceright
ENCODING 125
SWIDTH 274 0
DWIDTH 5 0
BBX 5 16 -1 -4
BITMAP
10
08
08
08
08
10
10
10
08
10
20
20
20
20
40
80
ENDCHAR

STARTCHAR asciitilde
ENCODING 126
SWIDTH 479 0
DWIDTH 8 0
BBX 7 2 1 4
BITMAP
72
9C
ENDCHAR

STARTCHAR space
ENCODING 160
SWIDTH 228 0
DWIDTH 5 0
BBX 0 0 0 0
BITMAP
ENDCHAR

STARTCHAR exclamdown
ENCODING 161
SWIDTH 273 0
DWIDTH 5 0
BBX 3 12 1 -4
BITMAP
20
20
00
40
40
40
40
40
C0
C0
C0
80
ENDCHAR

STARTCHAR cent
ENCODING 162
SWIDTH 456 0
DWIDTH 8 0
BBX 6 15 1 -3
BITMAP
04
04
08
38
4C
94
90
90
A0
A4
A8
70
40
80
80
ENDCHAR

STARTCHAR sterling
ENCODING 163
SWIDTH 456 0
DWIDTH 8 0
BBX 8 12 0 0
BITMAP
0E
11
21
20
10
7C
10
10
20
20
72
8C
ENDCHAR

STARTCHAR currency
ENCODING 164
SWIDTH 456 0
DWIDTH 8 0
BBX 8 9 0 2
BITMAP
81
5A
24
42
42
42
24
5A
81
ENDCHAR

STARTCHAR yen
ENCODING 165
SWIDTH 456 0
DWIDTH 8 0
BBX 8 12 0 0
BITMAP
81
82
44
44
28
18
7F
10
FE
20
20
20
ENDCHAR

STARTCHAR brokenbar
ENCODING 166
SWIDTH 213 0
DWIDTH 4 0
BBX 1 17 2 -5
BITMAP
80
80
80
80
80
80
80
00
00
00
80
80
80
80
80
80
80
ENDCHAR

STARTCHAR section
ENCODING 167
SWIDTH 456 0
DWIDTH 8 0
BBX 8 15 0 -3
BITMAP
0E
11
21
20
18
24
42
42
24
18
04
04
84
88
70
ENDCHAR

STARTCHAR dieresis
ENCODING 168
SWIDTH 273 0
DWIDTH 5 0
BBX 3 2 1 10
BITMAP
A0
A0
ENDCHAR

STARTCHAR copyright
ENCODING 169
SWIDTH 604 0
DWIDTH 10 0
BBX 10 12 0 0
BITMAP
1E00
6180
4080
8C40
9240
A040
A040
A240
9240
4C80
6180
1E00
ENDCHAR

STARTCHAR ordfeminine
ENCODING 170
SWIDTH 303 0
DWIDTH 5 0
BBX 5 6 0 6
BITMAP
70
08
78
90
B0
D0
ENDCHAR

STARTCHAR guillemotleft
ENCODING 171
SWIDTH 456 0
DWIDTH 8 0
BBX 6 8 1 4
BITMAP
14
28
50
A0
A0
50
50
28
ENDCHAR

STARTCHAR logicalnot
ENCODING 172
SWIDTH 479 0
DWIDTH 8 0
BBX 6 5 1 3
BITMAP
FC
04
04
04
04
ENDCHAR

STARTCHAR hyphen
ENCODING 173
SWIDTH 273 0
DWIDTH 5 0
BBX 4 1 1 9
BITMAP
F0
ENDCHAR

STARTCHAR registered
ENCODING 174
SWIDTH 604 0
DWIDTH 10 0
BBX 10 12 0 0
BITMAP
1E00
6180
4080
9C40
9240
9240
9C40
9440
9240
5280
6180
1E00
ENDCHAR

STARTCHAR macron
ENCODING 175
SWIDTH 273 0
DWIDTH 5 0
BBX 5 1 0 10
BITMAP
F8
ENDCHAR

STARTCHAR degree
ENCODING 176
SWIDTH 328 0
DWIDTH 6 0
BBX 5 5 1 7
BITMAP
60
90
90
90
60
ENDCHAR

STARTCHAR plusminus
ENCODING 177
SWIDTH 479 0
DWIDTH 8 0
BBX 7 11 1 2
BITMAP
10
10
10
10
FE
10
10
10
10
00
FE
ENDCHAR

STARTCHAR twosuperior
ENCODING 178
SWIDTH 273 0
DWIDTH 5 0
BBX 5 7 0 5
BITMAP
30
48
08
30
40
80
F0
ENDCHAR

STARTCHAR threesuperior
ENCODING 179
SWIDTH 273 0
DWIDTH 5 0
BBX 5 7 0 5
BITMAP
30
48
08
30
10
90
60
ENDCHAR

STARTCHAR acute
ENCODING 180
SWIDTH 273 0
DWIDTH 5 0
BBX 2 2 2 10
BITMAP
40
80
ENDCHAR

STARTCHAR mu
ENCODING 181
SWIDTH 456 0
DWIDTH 8 0
BBX 7 12 1 -3
BITMAP
22
22
22
22
42
44
44
64
58
80
80
80
ENDCHAR

STARTCHAR paragraph
ENCODING 182
SWIDTH 440 0
DWIDTH 7 0
BBX 8 15 0 -3
BITMAP
7F
F2
F2
F2
F2
72
12
12
12
12
12
12
12
12
12
ENDCHAR

STARTCHAR periodcentered
ENCODING 183
SWIDTH 228 0
DWIDTH 4 0
BBX 1 2 2 5
BITMAP
80
80
ENDCHAR

STARTCHAR cedilla
ENCODING 184
SWIDTH 273 0
DWIDTH 5 0
BBX 4 3 1 -3
BITMAP
60
30
E0
ENDCHAR

STARTCHAR onesuperior
ENCODING 185
SWIDTH 273 0
DWIDTH 5 0
BBX 2 7 2 5
BITMAP
40
C0
40
80
80
80
80
ENDCHAR

STARTCHAR ordmasculine
ENCODING 186
SWIDTH 299 0
DWIDTH 5 0
BBX 5 6 0 6
BITMAP
38
48
88
88
90
E0
ENDCHAR

STARTCHAR guillemotright
ENCODING 187
SWIDTH 456 0
DWIDTH 8 0
BBX 6 8 1 4
BITMAP
50
28
28
14
14
28
50
A0
ENDCHAR

STARTCHAR onequarter
ENCODING 188
SWIDTH 684 0
DWIDTH 12 0
BBX 10 13 1 -1
BITMAP
2040
6080
2100
4100
4200
4400
4880
0980
1280
2480
47C0
4080
8080
ENDCHAR

STARTCHAR onehalf
ENCODING 189
SWIDTH 684 0
DWIDTH 12 0
BBX 10 13 1 -1
BITMAP
2040
6080
2100
4100
4200
4400
4980
0A40
1040
2180
4200
4400
8780
ENDCHAR

STARTCHAR threequarters
ENCODING 190
SWIDTH 684 0
DWIDTH 12 0
BBX 10 13 1 -1
BITMAP
3040
4880
0900
3100
1200
9400
6880
0980
1280
2480
47C0
4080
8080
ENDCHAR

STARTCHAR questiondown
ENCODING 191
SWIDTH 501 0
DWIDTH 9 0
BBX 6 12 2 -4
BITMAP
04
04
00
08
08
10
20
40
80
84
48
30
ENDCHAR

STARTCHAR Agrave
ENCODING 192
SWIDTH 547 0
DWIDTH 9 0
BBX 8 15 1 0
BITMAP
04
02
00
02
06
06
0A
09
11
21
3F
41
41
81
81
ENDCHAR

STARTCHAR Aacute
ENCODING 193
SWIDTH 547 0
DWIDTH 9 0
BBX 8 15 1 0
BITMAP
01
02
00
02
06
06
0A
09
11
21
3F
41
41
81
81
ENDCHAR

STARTCHAR Acircumflex
ENCODING 194
SWIDTH 547 0
DWIDTH 9 0
BBX 9 15 1 0
BITMAP
0300
0480
0000
0200
0600
0600
0A00
0900
1100
2100
3F00
4100
4100
8100
8100
ENDCHAR

STARTCHAR Atilde
ENCODING 195
SWIDTH 547 0
DWIDTH 9 0
BBX 10 15 1 0
BITMAP
0340
0580
0000
0200
0600
0600
0A00
0900
1100
2100
3F00
4100
4100
8100
8100
ENDCHAR

STARTCHAR Adieresis
ENCODING 196
SWIDTH 547 0
DWIDTH 9 0
BBX 9 15 1 0
BITMAP
0480
0480
0000
0200
0600
0600
0A00
0900
1100
2100
3F00
4100
4100
8100
8100
ENDCHAR

STARTCHAR Aring
ENCODING 197
SWIDTH 547 0
DWIDTH 9 0
BBX 9 15 1 0
BITMAP
0300
0480
0480
0300
0600
0600
0A00
0900
1100
2100
3F00
4100
4100
8100
8100
ENDCHAR

STARTCHAR AE
ENCODING 198
SWIDTH 820 0
DWIDTH 14 0
BBX 14 12 1 0
BITMAP
03FC
0280
0480
0900
0900
11F8
2200
3E00
4200
4400
8400
87F0
ENDCHAR

STARTCHAR Ccedilla
ENCODING 199
SWIDTH 592 0
DWIDTH 10 0
BBX 9 16 2 -4
BITMAP
0E00
1100
2080
4000
4000
8000
8000
8000
8000
8100
4200
3C00
1800
0400
0400
1800
ENDCHAR

STARTCHAR Egrave
ENCODING 200
SWIDTH 547 0
DWIDTH 9 0
BBX 9 15 1 0
BITMAP
0400
0200
0000
1F80
1000
1000
2000
2000
3F00
4000
4000
4000
8000
8000
FE00
ENDCHAR

STARTCHAR Eacute
ENCODING 201
SWIDTH 547 0
DWIDTH 9 0
BBX 9 15 1 0
BITMAP
0100
0200
0000
1F80
1000
1000
2000
2000
3F00
4000
4000
4000
8000
8000
FE00
ENDCHAR

STARTCHAR Ecircumflex
ENCODING 202
SWIDTH 547 0
DWIDTH 9 0
BBX 9 15 1 0
BITMAP
0300
0480
0000
1F80
1000
1000
2000
2000
3F00
4000
4000
4000
8000
8000
FE00
ENDCHAR

STARTCHAR Edieresis
ENCODING 203
SWIDTH 547 0
DWIDTH 9 0
BBX 9 15 1 0
BITMAP
0480
0480
0000
1F80
1000
1000
2000
2000
3F00
4000
4000
4000
8000
8000
FE00
ENDCHAR

STARTCHAR Igrave
ENCODING 204
SWIDTH 228 0
DWIDTH 4 0
BBX 4 15 1 0
BITMAP
20
10
00
10
10
10
20
20
20
40
40
40
80
80
80
ENDCHAR

STARTCHAR Iacute
ENCODING 205
SWIDTH 228 0
DWIDTH 4 0
BBX 5 15 1 0
BITMAP
08
10
00
10
10
10
20
20
20
40
40
40
80
80
80
ENDCHAR

STARTCHAR Icircumflex
ENCODING 206
SWIDTH 228 0
DWIDTH 4 0
BBX 6 15 1 0
BITMAP
18
24
00
10
10
10
20
20
20
40
40
40
80
80
80
ENDCHAR

STARTCHAR Idieresis
ENCODING 207
SWIDTH 228 0
DWIDTH 4 0
BBX 5 15 1 0
BITMAP
28
28
00
10
10
10
20
20
20
40
40
40
80
80
80
ENDCHAR

STARTCHAR Gbreve
ENCODING 208
SWIDTH 638 0
DWIDTH 11 0
BBX 10 15 2 0
BITMAP
0440
0380
0000
0F00
1080
2040
4000
4000
8000
8780
8080
8080
8100
4200
3C00
ENDCHAR

STARTCHAR Ntilde
ENCODING 209
SWIDTH 592 0
DWIDTH 10 0
BBX 11 15 1 0
BITMAP
03A0
05C0
0000
1040
1040
1840
2880
2880
2C80
4500
4500
4500
8600
8200
8200
ENDCHAR

STARTCHAR Ograve
ENCODING 210
SWIDTH 638 0
DWIDTH 11 0
BBX 9 15 2 0
BITMAP
0400
0200
0000
0E00
1100
2080
4080
4080
8080
8080
8100
8100
8200
4400
3800
ENDCHAR

STARTCHAR Oacute
ENCODING 211
SWIDTH 638 0
DWIDTH 11 0
BBX 9 15 2 0
BITMAP
0200
0400
0000
0E00
1100
2080
4080
4080
8080
8080
8100
8100
8200
4400
3800
ENDCHAR

STARTCHAR Ocircumflex
ENCODING 212
SWIDTH 638 0
DWIDTH 11 0
BBX 9 15 2 0
BITMAP
0300
0480
0000
0E00
1100
2080
4080
4080
8080
8080
8100
8100
8200
4400
3800
ENDCHAR

STARTCHAR Otilde
ENCODING 213
SWIDTH 638 0
DWIDTH 11 0
BBX 10 15 2 0
BITMAP
0740
0B80
0000
0E00
1100
2080
4080
4080
8080
8080
8100
8100
8200
4400
3800
ENDCHAR

STARTCHAR Odieresis
ENCODING 214
SWIDTH 638 0
DWIDTH 11 0
BBX 9 15 2 0
BITMAP
0480
0480
0000
0E00
1100
2080
4080
4080
8080
8080
8100
8100
8200
4400
3800
ENDCHAR

STARTCHAR multiply
ENCODING 215
SWIDTH 479 0
DWIDTH 8 0
BBX 6 8 1 2
BITMAP
84
48
48
30
30
48
48
84
ENDCHAR

STARTCHAR Oslash
ENCODING 216
SWIDTH 638 0
DWIDTH 11 0
BBX 9 12 2 0
BITMAP
0E80
1100
2280
4280
4480
8480
8880
8900
9100
9200
6400
B800
ENDCHAR

STARTCHAR Ugrave
ENCODING 217
SWIDTH 592 0
DWIDTH 10 0
BBX 10 15 1 0
BITMAP
0200
0100
0000
1040
1040
2080
2080
2080
4100
4100
4100
8200
8200
8400
7800
ENDCHAR

STARTCHAR Uacute
ENCODING 218
SWIDTH 592 0
DWIDTH 10 0
BBX 10 15 1 0
BITMAP
0100
0200
0000
1040
1040
2080
2080
2080
4100
4100
4100
8200
8200
8400
7800
ENDCHAR

STARTCHAR Ucircumflex
ENCODING 219
SWIDTH 592 0
DWIDTH 10 0
BBX 10 15 1 0
BITMAP
0300
0480
0000
1040
1040
2080
2080
2080
4100
4100
4100
8200
8200
8400
7800
ENDCHAR

STARTCHAR Udieresis
ENCODING 220
SWIDTH 592 0
DWIDTH 10 0
BBX 10 15 1 0
BITMAP
0480
0480
0000
1040
1040
2080
2080
2080
4100
4100
4100
8200
8200
8400
7800
ENDCHAR

STARTCHAR Idotaccent
ENCODING 221
SWIDTH 228 0
DWIDTH 4 0
BBX 5 15 1 0
BITMAP
08
08
00
10
10
10
20
20
20
40
40
40
80
80
80
ENDCHAR

STARTCHAR Scedilla
ENCODING 222
SWIDTH 547 0
DWIDTH 9 0
BBX 8 16 2 -4
BITMAP
1C
22
41
41
20
18
04
02
82
82
44
38
30
08
08
30
ENDCHAR

STARTCHAR germandbls
ENCODING 223
SWIDTH 501 0
DWIDTH 9 0
BBX 7 12 1 0
BITMAP
0C
12
12
22
24
28
48
44
42
82
A4
98
ENDCHAR

STARTCHAR agrave
ENCODING 224
SWIDTH 456 0
DWIDTH 8 0
BBX 7 12 1 0
BITMAP
10
08
00
1C
22
42
04
3C
44
88
88
74
ENDCHAR

STARTCHAR aacute
ENCODING 225
SWIDTH 456 0
DWIDTH 8 0
BBX 7 12 1 0
BITMAP
04
08
00
1C
22
42
04
3C
44
88
88
74
ENDCHAR

STARTCHAR acircumflex
ENCODING 226
SWIDTH 456 0
DWIDTH 8 0
BBX 7 12 1 0
BITMAP
0C
12
00
1C
22
42
04
3C
44
88
88
74
ENDCHAR

STARTCHAR atilde
ENCODING 227
SWIDTH 456 0
DWIDTH 8 0
BBX 8 12 1 0
BITMAP
0D
16
00
1C
22
42
04
3C
44
88
88
74
ENDCHAR

STARTCHAR adieresis
ENCODING 228
SWIDTH 456 0
DWIDTH 8 0
BBX 7 12 1 0
BITMAP
12
12
00
1C
22
42
04
3C
44
88
88
74
ENDCHAR

STARTCHAR aring
ENCODING 229
SWIDTH 456 0
DWIDTH 8 0
BBX 7 13 1 0
BITMAP
0C
12
12
0C
1C
22
42
04
3C
44
88
88
74
ENDCHAR

STARTCHAR ae
ENCODING 230
SWIDTH 729 0
DWIDTH 12 0
BBX 11 9 1 0
BITMAP
1CC0
2320
4220
0420
3FC0
4400
8840
8880
7700
ENDCHAR

STARTCHAR ccedilla
ENCODING 231
SWIDTH 410 0
DWIDTH 7 0
BBX 7 13 1 -4
BITMAP
1C
22
42
40
80
80
84
88
70
60
10
10
60
ENDCHAR

STARTCHAR egrave
ENCODING 232
SWIDTH 456 0
DWIDTH 8 0
BBX 7 12 1 0
BITMAP
10
08
00
1C
22
42
42
7C
80
84
88
70
ENDCHAR

STARTCHAR eacute
ENCODING 233
SWIDTH 456 0
DWIDTH 8 0
BBX 7 12 1 0
BITMAP
04
08
00
1C
22
42
42
7C
80
84
88
70
ENDCHAR

STARTCHAR ecircumflex
ENCODING 234
SWIDTH 456 0
DWIDTH 8 0
BBX 7 12 1 0
BITMAP
0C
12
00
1C
22
42
42
7C
80
84
88
70
ENDCHAR

STARTCHAR edieresis
ENCODING 235
SWIDTH 456 0
DWIDTH 8 0
BBX 7 12 1 0
BITMAP
12
12
00
1C
22
42
42
7C
80
84
88
70
ENDCHAR

STARTCHAR igrave
ENCODING 236
SWIDTH 228 0
DWIDTH 4 0
BBX 4 12 1 0
BITMAP
20
10
00
20
20
20
40
40
40
80
80
80
ENDCHAR

STARTCHAR iacute
ENCODING 237
SWIDTH 228 0
DWIDTH 4 0
BBX 4 12 1 0
BITMAP
10
20
00
20
20
20
40
40
40
80
80
80
ENDCHAR

STARTCHAR icircumflex
ENCODING 238
SWIDTH 228 0
DWIDTH 4 0
BBX 5 12 1 0
BITMAP
30
48
00
20
20
20
40
40
40
80
80
80
ENDCHAR

STARTCHAR idieresis
ENCODING 239
SWIDTH 228 0
DWIDTH 4 0
BBX 5 12 1 0
BITMAP
48
48
00
20
20
20
40
40
40
80
80
80
ENDCHAR

STARTCHAR gbreve
ENCODING 240
SWIDTH 456 0
DWIDTH 8 0
BBX 9 15 0 -3
BITMAP
0880
0700
0000
0D00
1300
2100
2100
4200
4200
4200
4A00
3400
0400
8800
7000
ENDCHAR

STARTCHAR ntilde
ENCODING 241
SWIDTH 456 0
DWIDTH 8 0
BBX 8 12 1 0
BITMAP
0D
16
00
2C
32
22
42
44
44
88
88
88
ENDCHAR

STARTCHAR ograve
ENCODING 242
SWIDTH 456 0
DWIDTH 8 0
BBX 7 12 1 0
BITMAP
08
04
00
1C
22
42
42
82
84
84
88
70
ENDCHAR

STARTCHAR oacute
ENCODING 243
SWIDTH 456 0
DWIDTH 8 0
BBX 7 12 1 0
BITMAP
04
08
00
1C
22
42
42
82
84
84
88
70
ENDCHAR

STARTCHAR ocircumflex
ENCODING 244
SWIDTH 456 0
DWIDTH 8 0
BBX 7 12 1 0
BITMAP
0E
10
00
1C
22
42
42
82
84
84
88
70
ENDCHAR

STARTCHAR otilde
ENCODING 245
SWIDTH 456 0
DWIDTH 8 0
BBX 8 12 1 0
BITMAP
0D
16
00
1C
22
42
42
82
84
84
88
70
ENDCHAR

STARTCHAR odieresis
ENCODING 246
SWIDTH 456 0
DWIDTH 8 0
BBX 7 12 1 0
BITMAP
12
12
00
1C
22
42
42
82
84
84
88
70
ENDCHAR

STARTCHAR divide
ENCODING 247
SWIDTH 479 0
DWIDTH 8 0
BBX 7 7 1 2
BITMAP
10
10
00
FE
00
10
10
ENDCHAR

STARTCHAR oslash
ENCODING 248
SWIDTH 501 0
DWIDTH 8 0
BBX 7 9 1 0
BITMAP
1E
26
4A
4A
92
94
A4
A8
F0
ENDCHAR

STARTCHAR ugrave
ENCODING 249
SWIDTH 456 0
DWIDTH 8 0
BBX 7 12 1 0
BITMAP
08
04
00
22
22
22
44
44
84
88
98
68
ENDCHAR

STARTCHAR uacute
ENCODING 250
SWIDTH 456 0
DWIDTH 8 0
BBX 7 12 1 0
BITMAP
04
08
00
22
22
22
44
44
84
88
98
68
ENDCHAR

STARTCHAR ucircumflex
ENCODING 251
SWIDTH 456 0
DWIDTH 8 0
BBX 7 12 1 0
BITMAP
0C
12
00
22
22
22
44
44
84
88
98
68
ENDCHAR

STARTCHAR udieresis
ENCODING 252
SWIDTH 456 0
DWIDTH 8 0
BBX 7 12 1 0
BITMAP
12
12
00
22
22
22
44
44
84
88
98
68
ENDCHAR

STARTCHAR dotlessi
ENCODING 253
SWIDTH 228 0
DWIDTH 4 0
BBX 3 9 1 0
BITMAP
20
20
20
40
40
40
80
80
80
ENDCHAR

STARTCHAR scedilla
ENCODING 254
SWIDTH 410 0
DWIDTH 7 0
BBX 7 13 1 -4
BITMAP
1C
22
42
40
38
04
84
88
70
60
10
10
60
ENDCHAR

STARTCHAR ydieresis
ENCODING 255
SWIDTH 410 0
DWIDTH 6 0
BBX 8 15 -1 -3
BITMAP
12
12
00
21
21
22
22
14
14
18
18
10
20
20
C0
ENDCHAR
ENDFONT
